PathFileType	4	(X/Y/Z)	64_2_65_p1_0-513_filt_butterworth.trc
DataRate	CameraRate	NumFrames	NumMarkers	Units	OrigDataRate	OrigDataStartFrame	OrigNumFrames
60.0	60.0	5	27	m	60.0	192	513
Frame#	Time	RHip			RKnee			RAnkle			RBigToe			RSmallToe			RHeel			LHip			LKnee			LAnkle			LBigToe			LSmallToe			LHeel			Neck			Head			Nose			RShoulder			RElbow			RWrist			RThumb			RIndex			RPinky			LShoulder			LElbow			LWrist			LThumb			LIndex			LPinky			
		X1	Y1	Z1	X2	Y2	Z2	X3	Y3	Z3	X4	Y4	Z4	X5	Y5	Z5	X6	Y6	Z6	X7	Y7	Z7	X8	Y8	Z8	X9	Y9	Z9	X10	Y10	Z10	X11	Y11	Z11	X12	Y12	Z12	X13	Y13	Z13	X14	Y14	Z14	X15	Y15	Z15	X16	Y16	Z16	X17	Y17	Z17	X18	Y18	Z18	X19	Y19	Z19	X20	Y20	Z20	X21	Y21	Z21	X22	Y22	Z22	X23	Y23	Z23	X24	Y24	Z24	X25	Y25	Z25	X26	Y26	Z26	X27	Y27	Z27	
192	3.2	0.33547451157643426	0.7230260598052958	0.554299056753086	0.2930640373837825	1.0086801696350371	0.916456953668191	0.28512339962522276	1.228554432542008	1.2645315915601936	0.2841860481958808	1.0730212243395323	1.4140140589861092	0.35048289321236487	1.1044463664275832	1.388282964373634	0.2195964204391418	1.3427504939940003	1.2945673490905738	0.09600425268550797	0.6861992015642379	0.5732179540250633	0.06953335387323394	0.9440309032225297	0.9385314652314298	0.05305149401978301	1.1566015338407305	1.2851110994338875	0.12562456840627334	1.0026155581464227	1.4157357204758088	0.055128634848991186	1.0612122018087267	1.4095062290701332	0.04736758016052659	1.2704093583413816	1.2962533784868155	0.2622047472539999	0.36208498248078846	0.03280842418722567	0.29136581784793686	0.18038468969410645	-0.15484052382705146	0.29608381186303334	0.2025637424595052	-0.0007979349217891107	0.4153268293086114	0.5017428607591101	0.09508024015828585	0.435011596736443	0.6524067784707375	0.350985542824359	0.4329790517210196	0.7194575829832367	0.6225508084830008	0.3851176260528105	0.7620190360009985	0.7610024192121522	0.3877970329175224	0.7914466052783123	0.776576616107759	0.42442169599097035	0.8158147283192279	0.7553193608760449	0.100604998720358	0.37761235014700517	0.1303575284214718	-0.0023962743265267413	0.5392026617440107	0.37778732181113706	-0.004748396728259402	0.6772240101507858	0.6536318045969668	0.027975288386340273	0.7088885357266861	0.7570418278008687	-0.012724907415551757	0.7500997495583549	0.7694796098204447	-0.021683107760778517	0.7339251302899442	0.7535030642379592
193	3.216666666666667	0.3355702033850603	0.7233115191160755	0.555229073840603	0.2930805037822585	1.0085518613866669	0.9163410777652466	0.28527264609718567	1.2282982146521981	1.2645318706425515	0.2839694334827505	1.0733554453850032	1.414061305454953	0.3506502720524306	1.1045532829908449	1.3886480047613485	0.21986666617825606	1.3421988457693486	1.2933817873715658	0.09619486885771898	0.6857366101245108	0.5722875033053798	0.06934543362364255	0.9444354633223839	0.9386259133763442	0.05242567970891207	1.1550973494005679	1.284157196254129	0.12562983096284386	1.0026062090432142	1.415764261923844	0.055119336409812	1.0610752839516975	1.4095291565069314	0.046789756223354406	1.2686768081649549	1.296186708418813	0.26209949060719095	0.3620499083760114	0.032867240350010346	0.29123198214647095	0.18043438892434355	-0.15482295108799946	0.2979414782084564	0.20023288768654257	0.0005521466629865788	0.4152937981310166	0.5020928692737564	0.0959376666035751	0.43503361567907495	0.6532756378843253	0.3517771053569463	0.4329598060141281	0.7195379928056779	0.622520761484462	0.38509721421315934	0.7618470193869291	0.7600080344492688	0.387822955670897	0.7915542498821674	0.7765833200894715	0.42360125747814026	0.8172379198037308	0.7552816277633284	0.10058854843649352	0.3775696338579336	0.1303649093896342	-0.0021560695377015773	0.5373397018090076	0.3784238297354833	-0.0047437661623079665	0.6789354487942169	0.6563745462502711	0.025305106839321842	0.70882222820323	0.7568188011555689	-0.013646204989815423	0.7492775301248871	0.7696952639535437	-0.0217001315473673	0.7339148967549703	0.7535808724010703
194	3.2333333333333334	0.33560878116142745	0.7234457829150042	0.555631227918295	0.2930988878034987	1.008626765235453	0.9163731042258034	0.2854989482792421	1.2279376188099906	1.264525524846276	0.2838905953035043	1.0736727726917228	1.4141630136940346	0.3508092674954833	1.1043567398461986	1.3891416528657923	0.21980780606432476	1.3426392575236057	1.293385649228128	0.09627850440363661	0.6855823180954987	0.572044895998563	0.06923778271859321	0.9448728297007073	0.9386584808938394	0.052064510603469366	1.1545820942498264	1.2839850689222594	0.12562454173378934	1.0026756898721356	1.4158190388383753	0.05516303538020618	1.0609749800864527	1.4095616071340529	0.04651126962256233	1.2678734007691002	1.2963337657243383	0.26192599186367665	0.3620338212001277	0.03291772079505214	0.2912577568421195	0.1804487546794556	-0.15480856197725232	0.30043083146603533	0.19717114930383856	0.0022938453713688164	0.4152886174148955	0.5021889460256301	0.09624468376889493	0.4350588765591664	0.6535873143681897	0.35209399982686873	0.43285129832200736	0.719729236918223	0.62249938359054	0.38509606580958466	0.7618244319789276	0.7596613248201797	0.3878218010718989	0.7915969510000809	0.776602196521461	0.42330907627992553	0.8177365300567598	0.7553024381674113	0.10060699683819764	0.3775046947153028	0.13041591773148908	-0.001689101188210683	0.5332150650205139	0.3798793321903904	-0.004729066007247831	0.6796185963951596	0.6575353576096604	0.023276206014237334	0.709889751614015	0.7565068979206662	-0.014046355608237034	0.748999853070071	0.7697940355816335	-0.02170032767253509	0.7339030703965963	0.7535656518284274
195	3.25	0.3356116593456854	0.7233968597450546	0.5557144266118978	0.29310897357914517	1.0087803076045503	0.9164677156926776	0.2854898556148392	1.228039223655287	1.2645158489473107	0.28392783642250774	1.0738831821122272	1.4141848685031497	0.35083782841814837	1.104118458697316	1.3889754457069199	0.21945160624118254	1.3437410610890288	1.2945481905252005	0.09621587102950266	0.6857768843986936	0.5724507997284249	0.06922017151311395	0.9454975091536244	0.9386753621214643	0.051807926334157955	1.1548304897201536	1.284545748789876	0.1256162779545251	1.0027215669646126	1.4158544685270735	0.055312755411150334	1.0607901158099604	1.4095936830083842	0.04641862017731821	1.267763978858891	1.2964646051457445	0.26192760427062367	0.3621413651573794	0.032929865919922675	0.29200066442947353	0.18045845390422374	-0.15480892909252755	0.3023621838113805	0.19481579518670775	0.003637725680105544	0.41529034829610184	0.5022244978727247	0.09627002968780625	0.4350683605348947	0.6535411015726416	0.3520683024470466	0.43274476179798305	0.7199181601602533	0.622492021890755	0.3850726191183598	0.7618812878440452	0.7600161347286931	0.38779815195716383	0.7915777624935262	0.7766288107295696	0.4232795733022958	0.8177805600675576	0.7553413694928666	0.10061808029704977	0.3774739662020598	0.13045523268436546	-0.0012942801753874286	0.5297642686953539	0.38109816206494784	-0.004704496781936343	0.6795860196380474	0.6575904837420226	0.022783195852440288	0.712066280892783	0.756155200114416	-0.014100364069411033	0.7489980689696991	0.7698270943362227	-0.02167242439379166	0.7338388118483917	0.7534961081759599
196	3.2666666666666666	0.3356339682603059	0.7231018602607597	0.5557385264520873	0.2931096828557889	1.0088466330590147	0.9165096753902353	0.28453966072579095	1.229832933423046	1.2645523512223715	0.28400509536111684	1.074027158496786	1.4138193723634447	0.3506484670505141	1.1041603724373423	1.3880362535842647	0.21906995097943344	1.3448330902453598	1.2958080967194456	0.09602532143923936	0.6862354960941421	0.5734128119700077	0.069269597298161	0.9461044667641358	0.9386680440122469	0.05168260210040733	1.1553656822707963	1.2852715693241452	0.12560411449970726	1.0027034885647133	1.415843580444239	0.055536629012637166	1.06051887809197	1.4095226111386059	0.046473480522949064	1.2678302235838257	1.2963902347852947	0.2626576482129623	0.36245840888973985	0.03285517126916371	0.2938214564664828	0.18058047348322767	-0.15486560954248133	0.3031760435175511	0.193857407984355	0.0042018862782106136	0.41527159024801197	0.5025245887470453	0.09646981906117566	0.43505796025142823	0.6534089899623026	0.35193054292989023	0.4327140162268377	0.720033868165472	0.6224975097500285	0.3850916887571646	0.7620462428204844	0.7610078859576619	0.38777061342383407	0.7915336713386608	0.7766558516408488	0.4233076070161707	0.8177558511708741	0.7553743889841819	0.10061301402624427	0.37749228928824474	0.13047873624548417	-0.0011240281968364378	0.5283289482221061	0.38160806519372653	-0.004682599293011276	0.6793746757497879	0.6573503616451561	0.024287227550067	0.7135585944037861	0.7561695950829104	-0.014067628743643753	0.749011759545571	0.7698465399408604	-0.021626568728874796	0.7337262427684107	0.7534999910324532
